<svg xmlns="http://www.w3.org/2000/svg" viewBox="0 0 1000 1000"><rect width="1000" height="1000" rx="180" fill="#F2C600"/><path fill="#121212" d="M429.04869762174405 842.0724801812005Q415.57191392978484 819.8754246885618 393.7712344280861 793.7146092865232Q371.9705549263873 767.5537938844848 348.98074745186864 751.6987542468856Q450.45300113250283 709.682899207248 502.7746319365798 637.5424688561721Q555.0962627406568 565.4020385050962 559.8527746319367 449.6602491506229H437.7689694224236V601.8686296715742H320.44167610419026V451.2457531143828Q265.74178935447344 452.0385050962628 219.76217440543604 452.8312570781427Q173.78255945639867 453.6240090600227 150.00000000000003 455.2095130237826V337.0894677236694Q167.44054360135902 337.88221970554935 215.0056625141563 338.6749716874293Q262.5707814269536 339.46772366930924 320.44167610419026 341.0532276330691Q319.6489241223103 274.4620611551529 318.8561721404304 236.0135900339751Q318.06342015855046 197.5651189127973 314.89241223103056 172.98980747451878H442.5254813137033Q440.14722536806346 196.77236693091743 438.9580973952435 236.80634201585514Q437.7689694224236 276.84031710079284 437.7689694224236 341.8459796149491Q452.8312570781427 342.638731596829 467.4971687429219 342.638731596829Q482.16308040770105 342.638731596829 494.8471121177803 342.638731596829Q510.7021517553794 342.638731596829 526.9535673839184 342.638731596829Q543.2049830124575 342.638731596829 560.6455266138165 341.8459796149491Q559.8527746319367 294.2808607021518 558.2672706681767 245.92298980747455Q556.6817667044168 197.5651189127973 554.3035107587768 157.92751981879962H677.9728199320498V341.0532276330691Q731.0872027180068 340.26047565118915 777.0668176670442 339.07134767836925Q823.0464326160816 337.88221970554935 850.0 337.0894677236694V455.2095130237826Q824.6319365798414 453.6240090600227 777.8595696489241 452.8312570781427Q731.0872027180068 452.0385050962628 677.1800679501699 451.2457531143828Q672.4235560588902 597.1121177802945 610.1925254813137 690.2604756511892Q547.9614949037373 783.4088335220838 429.04869762174405 842.0724801812005Z"/></svg>